<mxfile host="app.diagrams.net" modified="2022-10-20T06:40:13.249Z" agent="5.0 (Windows NT 10.0; Win64; x64) AppleWebKit/537.36 (KHTML, like Gecko) Chrome/104.0.0.0 Safari/537.36" etag="HKc1lnvZNMQXnXSQYm8q" version="20.4.1" type="github">
  <diagram id="FtoD-XMlUUmFFMKcjNig" name="Page-1">
    <mxGraphModel dx="3220" dy="2487" grid="1" gridSize="10" guides="1" tooltips="1" connect="1" arrows="1" fold="1" page="1" pageScale="1" pageWidth="850" pageHeight="1100" math="0" shadow="0">
      <root>
        <mxCell id="0" />
        <mxCell id="1" parent="0" />
        <mxCell id="lZUS2v1G8GHMa_mkW9TZ-1" style="edgeStyle=orthogonalEdgeStyle;rounded=0;orthogonalLoop=1;jettySize=auto;html=1;exitX=0.5;exitY=0;exitDx=0;exitDy=0;entryX=0.078;entryY=1;entryDx=0;entryDy=0;entryPerimeter=0;strokeWidth=2;" edge="1" parent="1" source="lZUS2v1G8GHMa_mkW9TZ-2" target="lZUS2v1G8GHMa_mkW9TZ-20">
          <mxGeometry relative="1" as="geometry" />
        </mxCell>
        <mxCell id="lZUS2v1G8GHMa_mkW9TZ-2" value="用户特征" style="rounded=1;whiteSpace=wrap;html=1;fontSize=16;fillColor=#dae8fc;strokeColor=#6c8ebf;gradientColor=#7ea6e0;strokeWidth=2;" vertex="1" parent="1">
          <mxGeometry x="20" y="680" width="100" height="30" as="geometry" />
        </mxCell>
        <mxCell id="lZUS2v1G8GHMa_mkW9TZ-3" style="edgeStyle=orthogonalEdgeStyle;rounded=0;orthogonalLoop=1;jettySize=auto;html=1;exitX=0.5;exitY=0;exitDx=0;exitDy=0;entryX=0.328;entryY=1;entryDx=0;entryDy=0;entryPerimeter=0;strokeWidth=2;" edge="1" parent="1" source="lZUS2v1G8GHMa_mkW9TZ-4" target="lZUS2v1G8GHMa_mkW9TZ-20">
          <mxGeometry relative="1" as="geometry" />
        </mxCell>
        <mxCell id="lZUS2v1G8GHMa_mkW9TZ-4" value="上下文特征" style="rounded=1;whiteSpace=wrap;html=1;fontSize=16;fillColor=#d5e8d4;strokeColor=#82b366;gradientColor=#97d077;strokeWidth=2;" vertex="1" parent="1">
          <mxGeometry x="180" y="680" width="100" height="30" as="geometry" />
        </mxCell>
        <mxCell id="lZUS2v1G8GHMa_mkW9TZ-5" style="edgeStyle=orthogonalEdgeStyle;rounded=0;orthogonalLoop=1;jettySize=auto;html=1;exitX=0.5;exitY=0;exitDx=0;exitDy=0;entryX=0.578;entryY=1.001;entryDx=0;entryDy=0;entryPerimeter=0;strokeWidth=2;" edge="1" parent="1" source="lZUS2v1G8GHMa_mkW9TZ-6" target="lZUS2v1G8GHMa_mkW9TZ-20">
          <mxGeometry relative="1" as="geometry" />
        </mxCell>
        <mxCell id="lZUS2v1G8GHMa_mkW9TZ-6" value="广告特征" style="rounded=1;whiteSpace=wrap;html=1;fontSize=16;fillColor=#fff2cc;strokeColor=#d6b656;gradientColor=#ffd966;strokeWidth=2;" vertex="1" parent="1">
          <mxGeometry x="340" y="680" width="100" height="30" as="geometry" />
        </mxCell>
        <mxCell id="lZUS2v1G8GHMa_mkW9TZ-7" style="edgeStyle=orthogonalEdgeStyle;rounded=0;orthogonalLoop=1;jettySize=auto;html=1;exitX=0.5;exitY=0;exitDx=0;exitDy=0;entryX=0.5;entryY=1;entryDx=0;entryDy=0;strokeWidth=2;" edge="1" parent="1" source="lZUS2v1G8GHMa_mkW9TZ-8" target="lZUS2v1G8GHMa_mkW9TZ-18">
          <mxGeometry relative="1" as="geometry" />
        </mxCell>
        <mxCell id="lZUS2v1G8GHMa_mkW9TZ-8" value="流量侧特征" style="rounded=1;whiteSpace=wrap;html=1;fontSize=16;fillColor=#d5e8d4;strokeColor=#82b366;gradientColor=#97d077;strokeWidth=2;" vertex="1" parent="1">
          <mxGeometry x="500" y="680" width="100" height="30" as="geometry" />
        </mxCell>
        <mxCell id="lZUS2v1G8GHMa_mkW9TZ-9" style="edgeStyle=orthogonalEdgeStyle;rounded=0;orthogonalLoop=1;jettySize=auto;html=1;exitX=0.5;exitY=0;exitDx=0;exitDy=0;entryX=0.5;entryY=1;entryDx=0;entryDy=0;strokeWidth=2;" edge="1" parent="1" source="lZUS2v1G8GHMa_mkW9TZ-10" target="lZUS2v1G8GHMa_mkW9TZ-82">
          <mxGeometry relative="1" as="geometry" />
        </mxCell>
        <mxCell id="lZUS2v1G8GHMa_mkW9TZ-10" value="用户基础属性" style="rounded=1;whiteSpace=wrap;html=1;fontSize=16;fillColor=#dae8fc;strokeColor=#6c8ebf;gradientColor=#7ea6e0;strokeWidth=2;" vertex="1" parent="1">
          <mxGeometry x="735" y="680" width="100" height="30" as="geometry" />
        </mxCell>
        <mxCell id="lZUS2v1G8GHMa_mkW9TZ-11" style="edgeStyle=orthogonalEdgeStyle;rounded=0;orthogonalLoop=1;jettySize=auto;html=1;exitX=0.5;exitY=0;exitDx=0;exitDy=0;entryX=0.5;entryY=1;entryDx=0;entryDy=0;strokeWidth=2;" edge="1" parent="1" source="lZUS2v1G8GHMa_mkW9TZ-12" target="lZUS2v1G8GHMa_mkW9TZ-106">
          <mxGeometry relative="1" as="geometry" />
        </mxCell>
        <mxCell id="lZUS2v1G8GHMa_mkW9TZ-12" value="广告位特征" style="rounded=1;whiteSpace=wrap;html=1;fontSize=16;fillColor=#d5e8d4;strokeColor=#82b366;gradientColor=#97d077;strokeWidth=2;" vertex="1" parent="1">
          <mxGeometry x="1215.5" y="680" width="100" height="30" as="geometry" />
        </mxCell>
        <mxCell id="lZUS2v1G8GHMa_mkW9TZ-13" style="edgeStyle=orthogonalEdgeStyle;rounded=0;orthogonalLoop=1;jettySize=auto;html=1;exitX=0.5;exitY=0;exitDx=0;exitDy=0;entryX=0.5;entryY=1;entryDx=0;entryDy=0;strokeWidth=2;" edge="1" parent="1" source="lZUS2v1G8GHMa_mkW9TZ-14" target="lZUS2v1G8GHMa_mkW9TZ-82">
          <mxGeometry relative="1" as="geometry" />
        </mxCell>
        <mxCell id="lZUS2v1G8GHMa_mkW9TZ-14" value="广告特征" style="rounded=1;whiteSpace=wrap;html=1;fontSize=16;fillColor=#fff2cc;strokeColor=#d6b656;gradientColor=#ffd966;strokeWidth=2;" vertex="1" parent="1">
          <mxGeometry x="895" y="680" width="100" height="30" as="geometry" />
        </mxCell>
        <mxCell id="lZUS2v1G8GHMa_mkW9TZ-15" style="edgeStyle=orthogonalEdgeStyle;rounded=0;orthogonalLoop=1;jettySize=auto;html=1;exitX=0.5;exitY=0;exitDx=0;exitDy=0;entryX=0.5;entryY=1;entryDx=0;entryDy=0;strokeWidth=2;" edge="1" parent="1" source="lZUS2v1G8GHMa_mkW9TZ-16" target="lZUS2v1G8GHMa_mkW9TZ-82">
          <mxGeometry relative="1" as="geometry" />
        </mxCell>
        <mxCell id="lZUS2v1G8GHMa_mkW9TZ-16" value="上下文特征" style="rounded=1;whiteSpace=wrap;html=1;fontSize=16;fillColor=#d5e8d4;strokeColor=#82b366;gradientColor=#97d077;strokeWidth=2;" vertex="1" parent="1">
          <mxGeometry x="1055" y="680" width="100" height="30" as="geometry" />
        </mxCell>
        <mxCell id="lZUS2v1G8GHMa_mkW9TZ-17" style="edgeStyle=orthogonalEdgeStyle;rounded=0;orthogonalLoop=1;jettySize=auto;html=1;exitX=0.5;exitY=0;exitDx=0;exitDy=0;entryX=0.5;entryY=1;entryDx=0;entryDy=0;strokeWidth=2;" edge="1" parent="1" source="lZUS2v1G8GHMa_mkW9TZ-18" target="lZUS2v1G8GHMa_mkW9TZ-22">
          <mxGeometry relative="1" as="geometry" />
        </mxCell>
        <mxCell id="lZUS2v1G8GHMa_mkW9TZ-18" value="FM" style="rounded=1;whiteSpace=wrap;html=1;fontSize=18;fillColor=#f5f5f5;gradientColor=#b3b3b3;strokeColor=#666666;strokeWidth=2;" vertex="1" parent="1">
          <mxGeometry x="480" y="585" width="140" height="50" as="geometry" />
        </mxCell>
        <mxCell id="lZUS2v1G8GHMa_mkW9TZ-19" style="edgeStyle=orthogonalEdgeStyle;rounded=0;orthogonalLoop=1;jettySize=auto;html=1;exitX=0.5;exitY=0;exitDx=0;exitDy=0;entryX=0.5;entryY=1;entryDx=0;entryDy=0;strokeWidth=2;" edge="1" parent="1" source="lZUS2v1G8GHMa_mkW9TZ-20" target="lZUS2v1G8GHMa_mkW9TZ-36">
          <mxGeometry relative="1" as="geometry" />
        </mxCell>
        <mxCell id="lZUS2v1G8GHMa_mkW9TZ-20" value="FwFFM Layer" style="rounded=1;whiteSpace=wrap;html=1;fontSize=18;fillColor=#f5f5f5;gradientColor=#b3b3b3;strokeColor=#666666;strokeWidth=2;" vertex="1" parent="1">
          <mxGeometry x="21" y="410" width="640" height="50" as="geometry" />
        </mxCell>
        <mxCell id="lZUS2v1G8GHMa_mkW9TZ-21" style="edgeStyle=orthogonalEdgeStyle;rounded=0;orthogonalLoop=1;jettySize=auto;html=1;exitX=0.5;exitY=0;exitDx=0;exitDy=0;entryX=0.5;entryY=1;entryDx=0;entryDy=0;strokeWidth=2;" edge="1" parent="1" source="lZUS2v1G8GHMa_mkW9TZ-22" target="lZUS2v1G8GHMa_mkW9TZ-112">
          <mxGeometry relative="1" as="geometry">
            <mxPoint x="550" y="450" as="targetPoint" />
          </mxGeometry>
        </mxCell>
        <mxCell id="lZUS2v1G8GHMa_mkW9TZ-22" value="FC Layer" style="rounded=1;whiteSpace=wrap;html=1;fontSize=18;fillColor=#f5f5f5;strokeColor=#666666;gradientColor=#b3b3b3;strokeWidth=2;" vertex="1" parent="1">
          <mxGeometry x="450" y="500" width="200" height="50" as="geometry" />
        </mxCell>
        <mxCell id="lZUS2v1G8GHMa_mkW9TZ-23" style="edgeStyle=orthogonalEdgeStyle;rounded=0;orthogonalLoop=1;jettySize=auto;html=1;exitX=0.5;exitY=0;exitDx=0;exitDy=0;entryX=0.5;entryY=1;entryDx=0;entryDy=0;strokeWidth=2;" edge="1" parent="1" source="lZUS2v1G8GHMa_mkW9TZ-29" target="lZUS2v1G8GHMa_mkW9TZ-67">
          <mxGeometry relative="1" as="geometry" />
        </mxCell>
        <mxCell id="lZUS2v1G8GHMa_mkW9TZ-24" style="edgeStyle=orthogonalEdgeStyle;rounded=0;orthogonalLoop=1;jettySize=auto;html=1;exitX=0.5;exitY=0;exitDx=0;exitDy=0;entryX=0.5;entryY=1;entryDx=0;entryDy=0;strokeWidth=2;" edge="1" parent="1" source="lZUS2v1G8GHMa_mkW9TZ-29" target="lZUS2v1G8GHMa_mkW9TZ-68">
          <mxGeometry relative="1" as="geometry" />
        </mxCell>
        <mxCell id="lZUS2v1G8GHMa_mkW9TZ-25" style="edgeStyle=orthogonalEdgeStyle;rounded=0;orthogonalLoop=1;jettySize=auto;html=1;exitX=0.5;exitY=0;exitDx=0;exitDy=0;entryX=0.5;entryY=1;entryDx=0;entryDy=0;strokeWidth=2;" edge="1" parent="1" source="lZUS2v1G8GHMa_mkW9TZ-29" target="lZUS2v1G8GHMa_mkW9TZ-66">
          <mxGeometry relative="1" as="geometry">
            <Array as="points">
              <mxPoint x="-19" y="20" />
              <mxPoint x="-64" y="20" />
            </Array>
          </mxGeometry>
        </mxCell>
        <mxCell id="lZUS2v1G8GHMa_mkW9TZ-26" style="edgeStyle=orthogonalEdgeStyle;rounded=0;orthogonalLoop=1;jettySize=auto;html=1;exitX=0.5;exitY=0;exitDx=0;exitDy=0;entryX=0.501;entryY=0.875;entryDx=0;entryDy=0;entryPerimeter=0;fontSize=16;fontColor=#FFFFFF;strokeWidth=2;" edge="1" parent="1" source="lZUS2v1G8GHMa_mkW9TZ-29" target="lZUS2v1G8GHMa_mkW9TZ-84">
          <mxGeometry relative="1" as="geometry" />
        </mxCell>
        <mxCell id="lZUS2v1G8GHMa_mkW9TZ-27" style="edgeStyle=orthogonalEdgeStyle;rounded=0;orthogonalLoop=1;jettySize=auto;html=1;exitX=0.5;exitY=0;exitDx=0;exitDy=0;entryX=0.5;entryY=1;entryDx=0;entryDy=0;fontSize=16;fontColor=#FFFFFF;strokeWidth=2;" edge="1" parent="1" source="lZUS2v1G8GHMa_mkW9TZ-29">
          <mxGeometry relative="1" as="geometry">
            <mxPoint x="66" as="targetPoint" />
          </mxGeometry>
        </mxCell>
        <mxCell id="lZUS2v1G8GHMa_mkW9TZ-28" style="edgeStyle=orthogonalEdgeStyle;rounded=0;orthogonalLoop=1;jettySize=auto;html=1;exitX=0.5;exitY=0;exitDx=0;exitDy=0;entryX=0.5;entryY=1;entryDx=0;entryDy=0;fontSize=16;fontColor=#FFFFFF;strokeWidth=2;" edge="1" parent="1" source="lZUS2v1G8GHMa_mkW9TZ-29">
          <mxGeometry relative="1" as="geometry">
            <mxPoint x="-104" as="targetPoint" />
          </mxGeometry>
        </mxCell>
        <mxCell id="lZUS2v1G8GHMa_mkW9TZ-29" value="Shared&lt;br style=&quot;font-size: 18px;&quot;&gt;Tower" style="rounded=1;whiteSpace=wrap;html=1;fontSize=18;fillColor=#f5f5f5;gradientColor=#b3b3b3;strokeColor=#666666;strokeWidth=2;" vertex="1" parent="1">
          <mxGeometry x="-69" y="40" width="100" height="230" as="geometry" />
        </mxCell>
        <mxCell id="lZUS2v1G8GHMa_mkW9TZ-30" style="edgeStyle=orthogonalEdgeStyle;rounded=0;orthogonalLoop=1;jettySize=auto;html=1;exitX=0.5;exitY=0;exitDx=0;exitDy=0;entryX=0.5;entryY=1;entryDx=0;entryDy=0;strokeWidth=2;" edge="1" parent="1" source="lZUS2v1G8GHMa_mkW9TZ-36" target="lZUS2v1G8GHMa_mkW9TZ-29">
          <mxGeometry relative="1" as="geometry" />
        </mxCell>
        <mxCell id="lZUS2v1G8GHMa_mkW9TZ-31" style="edgeStyle=orthogonalEdgeStyle;rounded=0;orthogonalLoop=1;jettySize=auto;html=1;exitX=0.5;exitY=0;exitDx=0;exitDy=0;entryX=0.5;entryY=1;entryDx=0;entryDy=0;strokeWidth=2;" edge="1" parent="1" source="lZUS2v1G8GHMa_mkW9TZ-36" target="lZUS2v1G8GHMa_mkW9TZ-44">
          <mxGeometry relative="1" as="geometry" />
        </mxCell>
        <mxCell id="lZUS2v1G8GHMa_mkW9TZ-32" style="edgeStyle=orthogonalEdgeStyle;rounded=0;orthogonalLoop=1;jettySize=auto;html=1;exitX=0.5;exitY=0;exitDx=0;exitDy=0;entryX=0.5;entryY=1;entryDx=0;entryDy=0;strokeWidth=2;" edge="1" parent="1" source="lZUS2v1G8GHMa_mkW9TZ-36" target="lZUS2v1G8GHMa_mkW9TZ-46">
          <mxGeometry relative="1" as="geometry" />
        </mxCell>
        <mxCell id="lZUS2v1G8GHMa_mkW9TZ-33" style="edgeStyle=orthogonalEdgeStyle;rounded=0;orthogonalLoop=1;jettySize=auto;html=1;exitX=0.5;exitY=0;exitDx=0;exitDy=0;entryX=0.5;entryY=1;entryDx=0;entryDy=0;strokeWidth=2;" edge="1" parent="1" source="lZUS2v1G8GHMa_mkW9TZ-36">
          <mxGeometry relative="1" as="geometry">
            <mxPoint x="610" y="270" as="targetPoint" />
          </mxGeometry>
        </mxCell>
        <mxCell id="lZUS2v1G8GHMa_mkW9TZ-34" style="edgeStyle=orthogonalEdgeStyle;rounded=0;orthogonalLoop=1;jettySize=auto;html=1;exitX=0.5;exitY=0;exitDx=0;exitDy=0;entryX=0.5;entryY=1;entryDx=0;entryDy=0;strokeWidth=2;" edge="1" parent="1" source="lZUS2v1G8GHMa_mkW9TZ-36" target="lZUS2v1G8GHMa_mkW9TZ-54">
          <mxGeometry relative="1" as="geometry" />
        </mxCell>
        <mxCell id="lZUS2v1G8GHMa_mkW9TZ-35" style="edgeStyle=orthogonalEdgeStyle;rounded=0;orthogonalLoop=1;jettySize=auto;html=1;exitX=0.5;exitY=0;exitDx=0;exitDy=0;entryX=0.5;entryY=1;entryDx=0;entryDy=0;strokeWidth=2;" edge="1" parent="1" source="lZUS2v1G8GHMa_mkW9TZ-36" target="lZUS2v1G8GHMa_mkW9TZ-40">
          <mxGeometry relative="1" as="geometry" />
        </mxCell>
        <mxCell id="lZUS2v1G8GHMa_mkW9TZ-130" style="edgeStyle=orthogonalEdgeStyle;rounded=0;orthogonalLoop=1;jettySize=auto;html=1;exitX=0.5;exitY=0;exitDx=0;exitDy=0;entryX=0.5;entryY=1;entryDx=0;entryDy=0;" edge="1" parent="1" source="lZUS2v1G8GHMa_mkW9TZ-36" target="lZUS2v1G8GHMa_mkW9TZ-126">
          <mxGeometry relative="1" as="geometry" />
        </mxCell>
        <mxCell id="lZUS2v1G8GHMa_mkW9TZ-36" value="Emb Layer" style="rounded=1;whiteSpace=wrap;html=1;fontSize=18;fillColor=#f5f5f5;gradientColor=#b3b3b3;strokeColor=#666666;strokeWidth=2;" vertex="1" parent="1">
          <mxGeometry x="135" y="325" width="410" height="50" as="geometry" />
        </mxCell>
        <mxCell id="lZUS2v1G8GHMa_mkW9TZ-38" style="edgeStyle=orthogonalEdgeStyle;rounded=0;orthogonalLoop=1;jettySize=auto;html=1;exitX=0.5;exitY=0;exitDx=0;exitDy=0;entryX=0.5;entryY=1;entryDx=0;entryDy=0;strokeWidth=2;" edge="1" parent="1" source="lZUS2v1G8GHMa_mkW9TZ-40" target="lZUS2v1G8GHMa_mkW9TZ-56">
          <mxGeometry relative="1" as="geometry" />
        </mxCell>
        <mxCell id="lZUS2v1G8GHMa_mkW9TZ-40" value="闪屏&lt;br&gt;201" style="rounded=1;whiteSpace=wrap;html=1;fontSize=18;fillColor=#ffcd28;gradientColor=#ffa500;strokeColor=#d79b00;strokeWidth=2;" vertex="1" parent="1">
          <mxGeometry x="165" y="40" width="70" height="230" as="geometry" />
        </mxCell>
        <mxCell id="lZUS2v1G8GHMa_mkW9TZ-42" style="edgeStyle=orthogonalEdgeStyle;rounded=0;orthogonalLoop=1;jettySize=auto;html=1;exitX=0.5;exitY=0;exitDx=0;exitDy=0;entryX=0.5;entryY=1;entryDx=0;entryDy=0;strokeWidth=2;" edge="1" parent="1" source="lZUS2v1G8GHMa_mkW9TZ-44" target="lZUS2v1G8GHMa_mkW9TZ-59">
          <mxGeometry relative="1" as="geometry" />
        </mxCell>
        <mxCell id="lZUS2v1G8GHMa_mkW9TZ-44" value="信息流202" style="rounded=1;whiteSpace=wrap;html=1;fontSize=18;fillColor=#f8cecc;gradientColor=#ea6b66;strokeColor=#b85450;strokeWidth=2;" vertex="1" parent="1">
          <mxGeometry x="279" y="40" width="70" height="230" as="geometry" />
        </mxCell>
        <mxCell id="lZUS2v1G8GHMa_mkW9TZ-45" style="edgeStyle=orthogonalEdgeStyle;rounded=0;orthogonalLoop=1;jettySize=auto;html=1;exitX=0.5;exitY=0;exitDx=0;exitDy=0;entryX=0.5;entryY=1;entryDx=0;entryDy=0;strokeWidth=2;" edge="1" parent="1" source="lZUS2v1G8GHMa_mkW9TZ-46" target="lZUS2v1G8GHMa_mkW9TZ-63">
          <mxGeometry relative="1" as="geometry" />
        </mxCell>
        <mxCell id="lZUS2v1G8GHMa_mkW9TZ-46" value="横幅&lt;br&gt;205" style="rounded=1;whiteSpace=wrap;html=1;fontSize=18;fillColor=#d5e8d4;gradientColor=#97d077;strokeColor=#82b366;strokeWidth=2;" vertex="1" parent="1">
          <mxGeometry x="385" y="40" width="70" height="230" as="geometry" />
        </mxCell>
        <mxCell id="lZUS2v1G8GHMa_mkW9TZ-53" style="edgeStyle=orthogonalEdgeStyle;rounded=0;orthogonalLoop=1;jettySize=auto;html=1;exitX=0.5;exitY=0;exitDx=0;exitDy=0;entryX=0.5;entryY=1;entryDx=0;entryDy=0;strokeWidth=2;" edge="1" parent="1" source="lZUS2v1G8GHMa_mkW9TZ-54" target="lZUS2v1G8GHMa_mkW9TZ-62">
          <mxGeometry relative="1" as="geometry" />
        </mxCell>
        <mxCell id="lZUS2v1G8GHMa_mkW9TZ-54" value="pplr" style="rounded=1;whiteSpace=wrap;html=1;fontSize=18;fillColor=#dae8fc;gradientColor=#7ea6e0;strokeColor=#6c8ebf;strokeWidth=2;" vertex="1" parent="1">
          <mxGeometry x="670" y="40" width="100" height="230" as="geometry" />
        </mxCell>
        <mxCell id="lZUS2v1G8GHMa_mkW9TZ-56" value="" style="ellipse;whiteSpace=wrap;html=1;aspect=fixed;fillColor=#ffcd28;gradientColor=#ffa500;strokeColor=#d79b00;strokeWidth=2;" vertex="1" parent="1">
          <mxGeometry x="185" y="-30" width="30" height="30" as="geometry" />
        </mxCell>
        <mxCell id="lZUS2v1G8GHMa_mkW9TZ-59" value="" style="ellipse;whiteSpace=wrap;html=1;aspect=fixed;fillColor=#f8cecc;gradientColor=#ea6b66;strokeColor=#b85450;strokeWidth=2;" vertex="1" parent="1">
          <mxGeometry x="298" y="-30" width="30" height="30" as="geometry" />
        </mxCell>
        <mxCell id="lZUS2v1G8GHMa_mkW9TZ-62" value="" style="ellipse;whiteSpace=wrap;html=1;aspect=fixed;fillColor=#dae8fc;gradientColor=#7ea6e0;strokeColor=#6c8ebf;strokeWidth=2;" vertex="1" parent="1">
          <mxGeometry x="705" y="-30" width="30" height="30" as="geometry" />
        </mxCell>
        <mxCell id="lZUS2v1G8GHMa_mkW9TZ-63" value="" style="ellipse;whiteSpace=wrap;html=1;aspect=fixed;fillColor=#d5e8d4;gradientColor=#97d077;strokeColor=#82b366;strokeWidth=2;" vertex="1" parent="1">
          <mxGeometry x="404" y="-30" width="30" height="30" as="geometry" />
        </mxCell>
        <mxCell id="lZUS2v1G8GHMa_mkW9TZ-66" value="" style="ellipse;whiteSpace=wrap;html=1;aspect=fixed;fillColor=#f5f5f5;gradientColor=#b3b3b3;strokeColor=#666666;strokeWidth=2;" vertex="1" parent="1">
          <mxGeometry x="-79" y="-30" width="30" height="30" as="geometry" />
        </mxCell>
        <mxCell id="lZUS2v1G8GHMa_mkW9TZ-67" value="" style="ellipse;whiteSpace=wrap;html=1;aspect=fixed;fillColor=#f5f5f5;gradientColor=#b3b3b3;strokeColor=#666666;strokeWidth=2;" vertex="1" parent="1">
          <mxGeometry x="-34" y="-30" width="30" height="30" as="geometry" />
        </mxCell>
        <mxCell id="lZUS2v1G8GHMa_mkW9TZ-68" value="" style="ellipse;whiteSpace=wrap;html=1;aspect=fixed;fillColor=#f5f5f5;gradientColor=#b3b3b3;strokeColor=#666666;strokeWidth=2;" vertex="1" parent="1">
          <mxGeometry x="11" y="-30" width="30" height="30" as="geometry" />
        </mxCell>
        <mxCell id="lZUS2v1G8GHMa_mkW9TZ-69" value="" style="ellipse;whiteSpace=wrap;html=1;aspect=fixed;fillColor=#f5f5f5;gradientColor=#b3b3b3;strokeColor=#666666;strokeWidth=2;" vertex="1" parent="1">
          <mxGeometry x="-109" y="-20" width="10" height="10" as="geometry" />
        </mxCell>
        <mxCell id="lZUS2v1G8GHMa_mkW9TZ-70" value="" style="ellipse;whiteSpace=wrap;html=1;aspect=fixed;fillColor=#f5f5f5;gradientColor=#b3b3b3;strokeColor=#666666;strokeWidth=2;" vertex="1" parent="1">
          <mxGeometry x="60" y="-20" width="10" height="10" as="geometry" />
        </mxCell>
        <mxCell id="lZUS2v1G8GHMa_mkW9TZ-71" value="" style="ellipse;whiteSpace=wrap;html=1;aspect=fixed;fillColor=#1ba1e2;strokeColor=#006EAF;strokeWidth=2;fontColor=#ffffff;" vertex="1" parent="1">
          <mxGeometry x="1001" y="-315" width="30" height="30" as="geometry" />
        </mxCell>
        <mxCell id="lZUS2v1G8GHMa_mkW9TZ-72" value="" style="ellipse;whiteSpace=wrap;html=1;aspect=fixed;fillColor=#dae8fc;gradientColor=#7ea6e0;strokeColor=#6c8ebf;strokeWidth=2;" vertex="1" parent="1">
          <mxGeometry x="1051" y="-315" width="30" height="30" as="geometry" />
        </mxCell>
        <mxCell id="lZUS2v1G8GHMa_mkW9TZ-74" value="" style="ellipse;whiteSpace=wrap;html=1;aspect=fixed;fillColor=#ffcd28;gradientColor=#ffa500;strokeColor=#d79b00;strokeWidth=2;" vertex="1" parent="1">
          <mxGeometry x="811" y="-315" width="30" height="30" as="geometry" />
        </mxCell>
        <mxCell id="lZUS2v1G8GHMa_mkW9TZ-75" value="" style="ellipse;whiteSpace=wrap;html=1;aspect=fixed;fillColor=#f8cecc;gradientColor=#ea6b66;strokeColor=#b85450;strokeWidth=2;" vertex="1" parent="1">
          <mxGeometry x="856" y="-315" width="30" height="30" as="geometry" />
        </mxCell>
        <mxCell id="lZUS2v1G8GHMa_mkW9TZ-76" value="" style="ellipse;whiteSpace=wrap;html=1;aspect=fixed;fillColor=#f8cecc;gradientColor=#ea6b66;strokeColor=#b85450;strokeWidth=2;" vertex="1" parent="1">
          <mxGeometry x="901" y="-315" width="30" height="30" as="geometry" />
        </mxCell>
        <mxCell id="lZUS2v1G8GHMa_mkW9TZ-77" value="" style="ellipse;whiteSpace=wrap;html=1;aspect=fixed;fillColor=#d5e8d4;gradientColor=#97d077;strokeColor=#82b366;strokeWidth=2;" vertex="1" parent="1">
          <mxGeometry x="951" y="-315" width="30" height="30" as="geometry" />
        </mxCell>
        <mxCell id="lZUS2v1G8GHMa_mkW9TZ-81" style="edgeStyle=orthogonalEdgeStyle;rounded=0;orthogonalLoop=1;jettySize=auto;html=1;exitX=0.5;exitY=0;exitDx=0;exitDy=0;entryX=0.5;entryY=1;entryDx=0;entryDy=0;strokeWidth=2;" edge="1" parent="1" source="lZUS2v1G8GHMa_mkW9TZ-82" target="lZUS2v1G8GHMa_mkW9TZ-86">
          <mxGeometry relative="1" as="geometry" />
        </mxCell>
        <mxCell id="lZUS2v1G8GHMa_mkW9TZ-82" value="FM" style="rounded=1;whiteSpace=wrap;html=1;fontSize=18;fillColor=#f5f5f5;gradientColor=#b3b3b3;strokeColor=#666666;strokeWidth=2;" vertex="1" parent="1">
          <mxGeometry x="875" y="585" width="140" height="50" as="geometry" />
        </mxCell>
        <mxCell id="lZUS2v1G8GHMa_mkW9TZ-83" style="edgeStyle=orthogonalEdgeStyle;rounded=0;orthogonalLoop=1;jettySize=auto;html=1;exitX=0.5;exitY=0;exitDx=0;exitDy=0;entryX=0;entryY=0.5;entryDx=0;entryDy=0;strokeWidth=2;" edge="1" parent="1" source="lZUS2v1G8GHMa_mkW9TZ-84" target="lZUS2v1G8GHMa_mkW9TZ-88">
          <mxGeometry relative="1" as="geometry" />
        </mxCell>
        <mxCell id="lZUS2v1G8GHMa_mkW9TZ-84" value="" style="rounded=1;whiteSpace=wrap;html=1;shadow=0;gradientColor=none;fillColor=none;strokeWidth=3;" vertex="1" parent="1">
          <mxGeometry x="-119" y="-35" width="200" height="40" as="geometry" />
        </mxCell>
        <mxCell id="lZUS2v1G8GHMa_mkW9TZ-85" style="edgeStyle=orthogonalEdgeStyle;rounded=0;orthogonalLoop=1;jettySize=auto;html=1;exitX=0.5;exitY=0;exitDx=0;exitDy=0;entryX=0.5;entryY=1;entryDx=0;entryDy=0;fontSize=16;strokeWidth=2;" edge="1" parent="1" source="lZUS2v1G8GHMa_mkW9TZ-86" target="lZUS2v1G8GHMa_mkW9TZ-88">
          <mxGeometry relative="1" as="geometry" />
        </mxCell>
        <mxCell id="lZUS2v1G8GHMa_mkW9TZ-86" value="FC Layer" style="rounded=1;whiteSpace=wrap;html=1;fontSize=18;fillColor=#f5f5f5;gradientColor=#b3b3b3;strokeColor=#666666;strokeWidth=2;" vertex="1" parent="1">
          <mxGeometry x="845" y="500" width="200" height="50" as="geometry" />
        </mxCell>
        <mxCell id="lZUS2v1G8GHMa_mkW9TZ-87" style="edgeStyle=orthogonalEdgeStyle;rounded=0;orthogonalLoop=1;jettySize=auto;html=1;exitX=0.5;exitY=0;exitDx=0;exitDy=0;entryX=0.5;entryY=1;entryDx=0;entryDy=0;fontSize=16;strokeWidth=2;" edge="1" parent="1" source="lZUS2v1G8GHMa_mkW9TZ-88" target="lZUS2v1G8GHMa_mkW9TZ-92">
          <mxGeometry relative="1" as="geometry" />
        </mxCell>
        <mxCell id="lZUS2v1G8GHMa_mkW9TZ-88" value="&lt;h1&gt;+&lt;/h1&gt;" style="ellipse;whiteSpace=wrap;html=1;aspect=fixed;fillColor=#f8cecc;gradientColor=#ea6b66;strokeColor=#b85450;strokeWidth=2;" vertex="1" parent="1">
          <mxGeometry x="925" y="-240" width="40" height="40" as="geometry" />
        </mxCell>
        <mxCell id="lZUS2v1G8GHMa_mkW9TZ-89" style="edgeStyle=orthogonalEdgeStyle;rounded=0;orthogonalLoop=1;jettySize=auto;html=1;exitX=0.5;exitY=0;exitDx=0;exitDy=0;entryX=0;entryY=0.5;entryDx=0;entryDy=0;fontSize=16;strokeWidth=2;" edge="1" parent="1" source="lZUS2v1G8GHMa_mkW9TZ-92" target="lZUS2v1G8GHMa_mkW9TZ-116">
          <mxGeometry relative="1" as="geometry">
            <Array as="points">
              <mxPoint x="945" y="-390" />
            </Array>
          </mxGeometry>
        </mxCell>
        <mxCell id="lZUS2v1G8GHMa_mkW9TZ-90" style="edgeStyle=orthogonalEdgeStyle;rounded=0;orthogonalLoop=1;jettySize=auto;html=1;exitX=0.5;exitY=0;exitDx=0;exitDy=0;fontSize=16;strokeWidth=2;" edge="1" parent="1" source="lZUS2v1G8GHMa_mkW9TZ-92">
          <mxGeometry relative="1" as="geometry">
            <mxPoint x="945.5294117647063" y="-420" as="targetPoint" />
          </mxGeometry>
        </mxCell>
        <mxCell id="lZUS2v1G8GHMa_mkW9TZ-91" style="edgeStyle=orthogonalEdgeStyle;rounded=0;orthogonalLoop=1;jettySize=auto;html=1;exitX=0.5;exitY=0;exitDx=0;exitDy=0;entryX=0.5;entryY=1;entryDx=0;entryDy=0;fontSize=18;strokeWidth=2;" edge="1" parent="1" source="lZUS2v1G8GHMa_mkW9TZ-92" target="lZUS2v1G8GHMa_mkW9TZ-117">
          <mxGeometry relative="1" as="geometry" />
        </mxCell>
        <mxCell id="lZUS2v1G8GHMa_mkW9TZ-92" value="" style="rounded=1;whiteSpace=wrap;html=1;shadow=0;gradientColor=none;fillColor=none;strokeWidth=2;" vertex="1" parent="1">
          <mxGeometry x="719" y="-325" width="451" height="55" as="geometry" />
        </mxCell>
        <mxCell id="lZUS2v1G8GHMa_mkW9TZ-149" style="edgeStyle=orthogonalEdgeStyle;rounded=0;orthogonalLoop=1;jettySize=auto;html=1;exitX=0.5;exitY=0;exitDx=0;exitDy=0;entryX=0.5;entryY=1;entryDx=0;entryDy=0;" edge="1" parent="1" source="lZUS2v1G8GHMa_mkW9TZ-94" target="lZUS2v1G8GHMa_mkW9TZ-104">
          <mxGeometry relative="1" as="geometry" />
        </mxCell>
        <mxCell id="lZUS2v1G8GHMa_mkW9TZ-94" value="" style="rounded=1;whiteSpace=wrap;html=1;shadow=0;gradientColor=none;fillColor=none;strokeWidth=2;" vertex="1" parent="1">
          <mxGeometry x="170" y="-35" width="60" height="55" as="geometry" />
        </mxCell>
        <mxCell id="lZUS2v1G8GHMa_mkW9TZ-150" style="edgeStyle=orthogonalEdgeStyle;rounded=0;orthogonalLoop=1;jettySize=auto;html=1;exitX=0.5;exitY=0;exitDx=0;exitDy=0;" edge="1" parent="1">
          <mxGeometry relative="1" as="geometry">
            <mxPoint x="480" y="-92" as="targetPoint" />
            <mxPoint x="311.49999999999955" y="-37" as="sourcePoint" />
            <Array as="points">
              <mxPoint x="312" y="-64" />
              <mxPoint x="480" y="-64" />
            </Array>
          </mxGeometry>
        </mxCell>
        <mxCell id="lZUS2v1G8GHMa_mkW9TZ-96" value="" style="rounded=1;whiteSpace=wrap;html=1;shadow=0;gradientColor=none;fillColor=none;strokeWidth=2;" vertex="1" parent="1">
          <mxGeometry x="281" y="-35" width="61" height="55" as="geometry" />
        </mxCell>
        <mxCell id="lZUS2v1G8GHMa_mkW9TZ-147" style="edgeStyle=orthogonalEdgeStyle;rounded=0;orthogonalLoop=1;jettySize=auto;html=1;exitX=0.5;exitY=0;exitDx=0;exitDy=0;entryX=0.5;entryY=1;entryDx=0;entryDy=0;" edge="1" parent="1" source="lZUS2v1G8GHMa_mkW9TZ-100" target="lZUS2v1G8GHMa_mkW9TZ-104">
          <mxGeometry relative="1" as="geometry" />
        </mxCell>
        <mxCell id="lZUS2v1G8GHMa_mkW9TZ-100" value="" style="rounded=1;whiteSpace=wrap;html=1;shadow=0;gradientColor=none;fillColor=none;strokeWidth=2;" vertex="1" parent="1">
          <mxGeometry x="390" y="-35" width="60" height="50" as="geometry" />
        </mxCell>
        <mxCell id="lZUS2v1G8GHMa_mkW9TZ-103" style="edgeStyle=orthogonalEdgeStyle;rounded=0;orthogonalLoop=1;jettySize=auto;html=1;exitX=0.5;exitY=0;exitDx=0;exitDy=0;strokeWidth=2;" edge="1" parent="1" source="lZUS2v1G8GHMa_mkW9TZ-104" target="lZUS2v1G8GHMa_mkW9TZ-88">
          <mxGeometry relative="1" as="geometry" />
        </mxCell>
        <mxCell id="lZUS2v1G8GHMa_mkW9TZ-104" value="Concat Layer" style="rounded=1;whiteSpace=wrap;html=1;fontSize=18;fillColor=#f5f5f5;gradientColor=#b3b3b3;strokeColor=#666666;strokeWidth=2;" vertex="1" parent="1">
          <mxGeometry x="275" y="-144" width="410" height="50" as="geometry" />
        </mxCell>
        <mxCell id="lZUS2v1G8GHMa_mkW9TZ-105" style="edgeStyle=orthogonalEdgeStyle;rounded=0;orthogonalLoop=1;jettySize=auto;html=1;exitX=0.5;exitY=0;exitDx=0;exitDy=0;entryX=1;entryY=0.5;entryDx=0;entryDy=0;strokeWidth=2;" edge="1" parent="1" source="lZUS2v1G8GHMa_mkW9TZ-106" target="lZUS2v1G8GHMa_mkW9TZ-88">
          <mxGeometry relative="1" as="geometry" />
        </mxCell>
        <mxCell id="lZUS2v1G8GHMa_mkW9TZ-106" value="LR" style="rounded=1;whiteSpace=wrap;html=1;fontSize=18;fillColor=#f5f5f5;gradientColor=#b3b3b3;strokeColor=#666666;strokeWidth=2;" vertex="1" parent="1">
          <mxGeometry x="1195.5" y="585" width="140" height="50" as="geometry" />
        </mxCell>
        <mxCell id="lZUS2v1G8GHMa_mkW9TZ-109" style="edgeStyle=orthogonalEdgeStyle;rounded=0;orthogonalLoop=1;jettySize=auto;html=1;exitX=0;exitY=0.5;exitDx=0;exitDy=0;fontSize=18;strokeWidth=2;" edge="1" parent="1" source="lZUS2v1G8GHMa_mkW9TZ-110" target="lZUS2v1G8GHMa_mkW9TZ-112">
          <mxGeometry relative="1" as="geometry" />
        </mxCell>
        <mxCell id="lZUS2v1G8GHMa_mkW9TZ-110" value="&lt;b&gt;Field Weight&lt;/b&gt;" style="ellipse;whiteSpace=wrap;html=1;shadow=0;fontSize=10;strokeWidth=2;" vertex="1" parent="1">
          <mxGeometry x="580" y="420" width="80" height="30" as="geometry" />
        </mxCell>
        <mxCell id="lZUS2v1G8GHMa_mkW9TZ-111" style="edgeStyle=orthogonalEdgeStyle;rounded=0;orthogonalLoop=1;jettySize=auto;html=1;exitX=0;exitY=0.5;exitDx=0;exitDy=0;entryX=1.012;entryY=0.515;entryDx=0;entryDy=0;entryPerimeter=0;fontSize=18;strokeWidth=2;" edge="1" parent="1" source="lZUS2v1G8GHMa_mkW9TZ-112" target="lZUS2v1G8GHMa_mkW9TZ-113">
          <mxGeometry relative="1" as="geometry" />
        </mxCell>
        <mxCell id="lZUS2v1G8GHMa_mkW9TZ-112" value="+" style="ellipse;whiteSpace=wrap;html=1;aspect=fixed;shadow=0;fontSize=16;fillColor=#f8cecc;gradientColor=#ea6b66;strokeColor=#b85450;align=center;verticalAlign=middle;strokeWidth=2;" vertex="1" parent="1">
          <mxGeometry x="541" y="426" width="18" height="18" as="geometry" />
        </mxCell>
        <mxCell id="lZUS2v1G8GHMa_mkW9TZ-113" value="&lt;b&gt;New Field Weight&lt;/b&gt;" style="ellipse;whiteSpace=wrap;html=1;shadow=0;fontSize=10;strokeWidth=2;" vertex="1" parent="1">
          <mxGeometry x="410" y="420" width="110.5" height="30" as="geometry" />
        </mxCell>
        <mxCell id="lZUS2v1G8GHMa_mkW9TZ-114" style="edgeStyle=orthogonalEdgeStyle;rounded=0;orthogonalLoop=1;jettySize=auto;html=1;exitX=0.5;exitY=0;exitDx=0;exitDy=0;entryX=0.5;entryY=1;entryDx=0;entryDy=0;fontSize=16;strokeWidth=2;" edge="1" parent="1" source="lZUS2v1G8GHMa_mkW9TZ-115" target="lZUS2v1G8GHMa_mkW9TZ-116">
          <mxGeometry relative="1" as="geometry">
            <Array as="points">
              <mxPoint x="1413" y="680" />
            </Array>
          </mxGeometry>
        </mxCell>
        <mxCell id="lZUS2v1G8GHMa_mkW9TZ-115" value="Label" style="rounded=1;whiteSpace=wrap;html=1;fontSize=16;fillColor=#f8cecc;strokeColor=#b85450;gradientColor=#ea6b66;strokeWidth=2;" vertex="1" parent="1">
          <mxGeometry x="1363" y="680" width="100" height="30" as="geometry" />
        </mxCell>
        <mxCell id="lZUS2v1G8GHMa_mkW9TZ-116" value="&lt;font style=&quot;font-size: 18px&quot;&gt;Loss&lt;/font&gt;" style="ellipse;whiteSpace=wrap;html=1;shadow=0;fontSize=18;strokeWidth=2;fillColor=#f8cecc;gradientColor=#ea6b66;fontStyle=1;strokeColor=#b85450;fontColor=#FFFFFF;" vertex="1" parent="1">
          <mxGeometry x="1343" y="-430" width="120" height="80" as="geometry" />
        </mxCell>
        <mxCell id="lZUS2v1G8GHMa_mkW9TZ-117" value="&lt;font style=&quot;font-size: 18px&quot;&gt;Pred&lt;/font&gt;" style="ellipse;whiteSpace=wrap;html=1;shadow=0;fontSize=18;strokeWidth=2;fillColor=#d5e8d4;gradientColor=#97d077;fontStyle=1;strokeColor=#82b366;fontColor=#FFFFFF;" vertex="1" parent="1">
          <mxGeometry x="884" y="-501" width="120" height="80" as="geometry" />
        </mxCell>
        <mxCell id="lZUS2v1G8GHMa_mkW9TZ-118" value="Text" style="text;html=1;align=center;verticalAlign=middle;resizable=0;points=[];autosize=1;strokeColor=none;fillColor=none;fontSize=16;fontColor=#FFFFFF;" vertex="1" parent="1">
          <mxGeometry x="380" y="-370" width="40" height="20" as="geometry" />
        </mxCell>
        <mxCell id="lZUS2v1G8GHMa_mkW9TZ-125" style="edgeStyle=orthogonalEdgeStyle;rounded=0;orthogonalLoop=1;jettySize=auto;html=1;exitX=0.5;exitY=0;exitDx=0;exitDy=0;entryX=0.5;entryY=1;entryDx=0;entryDy=0;strokeWidth=2;" edge="1" parent="1" source="lZUS2v1G8GHMa_mkW9TZ-126" target="lZUS2v1G8GHMa_mkW9TZ-127">
          <mxGeometry relative="1" as="geometry" />
        </mxCell>
        <mxCell id="lZUS2v1G8GHMa_mkW9TZ-126" value="其他" style="rounded=1;whiteSpace=wrap;html=1;fontSize=18;fillColor=#f8cecc;strokeColor=#b85450;strokeWidth=2;" vertex="1" parent="1">
          <mxGeometry x="480" y="39" width="70" height="230" as="geometry" />
        </mxCell>
        <mxCell id="lZUS2v1G8GHMa_mkW9TZ-127" value="" style="ellipse;whiteSpace=wrap;html=1;aspect=fixed;fillColor=#f8cecc;strokeColor=#b85450;strokeWidth=2;" vertex="1" parent="1">
          <mxGeometry x="499" y="-31" width="30" height="30" as="geometry" />
        </mxCell>
        <mxCell id="lZUS2v1G8GHMa_mkW9TZ-146" style="edgeStyle=orthogonalEdgeStyle;rounded=0;orthogonalLoop=1;jettySize=auto;html=1;exitX=0.5;exitY=0;exitDx=0;exitDy=0;entryX=0.5;entryY=1;entryDx=0;entryDy=0;" edge="1" parent="1" source="lZUS2v1G8GHMa_mkW9TZ-128" target="lZUS2v1G8GHMa_mkW9TZ-104">
          <mxGeometry relative="1" as="geometry" />
        </mxCell>
        <mxCell id="lZUS2v1G8GHMa_mkW9TZ-128" value="" style="rounded=1;whiteSpace=wrap;html=1;shadow=0;gradientColor=none;fillColor=none;strokeWidth=2;" vertex="1" parent="1">
          <mxGeometry x="485" y="-36" width="60" height="50" as="geometry" />
        </mxCell>
        <mxCell id="lZUS2v1G8GHMa_mkW9TZ-131" style="edgeStyle=orthogonalEdgeStyle;rounded=0;orthogonalLoop=1;jettySize=auto;html=1;exitX=0.5;exitY=0;exitDx=0;exitDy=0;entryX=0.5;entryY=1;entryDx=0;entryDy=0;strokeWidth=2;" edge="1" parent="1" source="lZUS2v1G8GHMa_mkW9TZ-132" target="lZUS2v1G8GHMa_mkW9TZ-133">
          <mxGeometry relative="1" as="geometry" />
        </mxCell>
        <mxCell id="lZUS2v1G8GHMa_mkW9TZ-132" value="详情&lt;br&gt;203" style="rounded=1;whiteSpace=wrap;html=1;fontSize=18;fillColor=#1ba1e2;strokeColor=#006EAF;strokeWidth=2;fontColor=#ffffff;" vertex="1" parent="1">
          <mxGeometry x="572" y="39" width="70" height="230" as="geometry" />
        </mxCell>
        <mxCell id="lZUS2v1G8GHMa_mkW9TZ-133" value="" style="ellipse;whiteSpace=wrap;html=1;aspect=fixed;fillColor=#1ba1e2;strokeColor=#006EAF;strokeWidth=2;fontColor=#ffffff;" vertex="1" parent="1">
          <mxGeometry x="591" y="-31" width="30" height="30" as="geometry" />
        </mxCell>
        <mxCell id="lZUS2v1G8GHMa_mkW9TZ-143" style="edgeStyle=orthogonalEdgeStyle;rounded=0;orthogonalLoop=1;jettySize=auto;html=1;exitX=0.5;exitY=0;exitDx=0;exitDy=0;entryX=0.5;entryY=1;entryDx=0;entryDy=0;" edge="1" parent="1" source="lZUS2v1G8GHMa_mkW9TZ-134" target="lZUS2v1G8GHMa_mkW9TZ-104">
          <mxGeometry relative="1" as="geometry" />
        </mxCell>
        <mxCell id="lZUS2v1G8GHMa_mkW9TZ-134" value="" style="rounded=1;whiteSpace=wrap;html=1;shadow=0;gradientColor=none;fillColor=none;strokeWidth=2;" vertex="1" parent="1">
          <mxGeometry x="578" y="-36" width="60" height="50" as="geometry" />
        </mxCell>
        <mxCell id="lZUS2v1G8GHMa_mkW9TZ-144" style="edgeStyle=orthogonalEdgeStyle;rounded=0;orthogonalLoop=1;jettySize=auto;html=1;exitX=0.5;exitY=0;exitDx=0;exitDy=0;entryX=0.5;entryY=1;entryDx=0;entryDy=0;" edge="1" parent="1" source="lZUS2v1G8GHMa_mkW9TZ-140" target="lZUS2v1G8GHMa_mkW9TZ-104">
          <mxGeometry relative="1" as="geometry" />
        </mxCell>
        <mxCell id="lZUS2v1G8GHMa_mkW9TZ-140" value="" style="rounded=1;whiteSpace=wrap;html=1;shadow=0;gradientColor=none;fillColor=none;strokeWidth=2;" vertex="1" parent="1">
          <mxGeometry x="685" y="-36" width="60" height="50" as="geometry" />
        </mxCell>
      </root>
    </mxGraphModel>
  </diagram>
</mxfile>
